<svg xmlns="http://www.w3.org/2000/svg" width="403" height="404" viewBox="0 0 403 404">
    <g fill="none" fill-rule="evenodd">
        <path fill="#F9FBFA" d="M262.293 266.621c88.918 0 140.043-33.73 140.043-122.648S382.723 0 293.805 0 134 55.055 134 143.973 173.375 266.62 262.293 266.62z"/>
        <path fill="#FD6C19" d="M135.25 403.059c88.918 0 173.613-53.36 173.613-142.278C308.863 171.863 216.676 94 127.758 94 38.84 94 0 147.61 0 236.527 0 325.445 46.332 403.06 135.25 403.06z"/>
        <path fill="#FAD961" d="M262.293 370.621c88.918 0 140.043-33.73 140.043-122.648S382.723 104 293.805 104 134 159.055 134 247.973 173.375 370.62 262.293 370.62z"/>
    </g>
</svg>
