<?xml version="1.0" encoding="UTF-8"?>
<svg width="2880px" height="2880px" viewBox="0 0 2880 2880" version="1.1" xmlns="http://www.w3.org/2000/svg" xmlns:xlink="http://www.w3.org/1999/xlink">
    <!-- Generator: Sketch 43.2 (39069) - http://www.bohemiancoding.com/sketch -->
    <title>Untitled</title>
    <desc>Created with Sketch.</desc>
    <defs>
        <linearGradient x1="0%" y1="100%" x2="100%" y2="0%" id="linearGradient-1">
            <stop stop-color="#FFFFFF" stop-opacity="100" offset="0%"></stop>
            <stop stop-color="#FFFFFF" stop-opacity="100" offset="100%"></stop>
        </linearGradient>
    </defs>
    <g id="Page-1" stroke="none" stroke-width="1" fill="none" fill-rule="evenodd">
        <g id="cbm-logo-icon-border" fill-rule="nonzero" fill="url(#linearGradient-1)">
            <path d="M2011.69,1811.44 L2134.17,1943.07 C2125.53,1941.64 2116.71,1940.86 2107.77,1940.86 C2070.07,1940.86 2033.63,1954.34 2005.19,1978.8 C1904.31,2065.56 1775.58,2113.34 1642.71,2113.34 C1637.46,2113.34 1632.13,2113.26 1626.88,2113.11 C1485.07,2109.16 1351.18,2051.27 1249.86,1950.11 C1148.54,1848.95 1090.45,1715.14 1086.29,1573.34 C1081.46,1408.98 1148.77,1253.38 1268.95,1144.53 C1196.2,1225.83 1152.95,1334.09 1156.22,1452.51 C1162.65,1685.57 1352.11,1875.8 1585.14,1883.11 C1689.01,1886.37 1785.13,1853.83 1862.19,1796.95 C1908.27,1762.93 1972.68,1769.52 2011.69,1811.44 L2011.69,1811.44 Z M1052.97,1574.32 C1062.09,1885.18 1315.08,2137.77 1625.96,2146.44 C1779.08,2150.7 1919.7,2096.29 2026.92,2004.08 C2076.59,1961.36 2151.07,1965.03 2197.39,2011.35 L2197.39,2011.35 C2250.97,2064.92 2245.86,2153.66 2185.92,2200 C2023.71,2325.38 1820.26,2400 1599.38,2400 L1599.38,2399.31 C1594.44,2399.52 1589.49,2399.69 1584.53,2399.81 C1523.64,2398.89 1464.12,2392.36 1406.49,2380.61 C1104.03,2307.4 879.379,2034.96 879.379,1710 C879.379,1421.93 1055.98,1175.27 1306.76,1071.94 C1148.87,1181.71 1046.88,1366.52 1052.97,1574.32 Z M2058.5,973.328 C2058.5,1032.25 2010.74,1080 1951.83,1080 C1929.96,1080 1918.5,1073.33 1892.71,1062.1 C1839.38,1033.33 1780.61,1016.69 1723.08,1003.89 C1673.64,993.059 1665.22,992.43 1613.54,988.059 C1604.79,987.309 1591.46,986.988 1587.11,986.988 C1580.11,986.988 1573.1,986.672 1566.04,986.672 C1168.4,986.672 846.047,1309.02 846.047,1706.67 C846.047,1935.37 952.695,2139.14 1118.95,2271.02 C959.285,2178.51 828.734,2041.38 744.391,1876.7 C698.965,1788.01 673.559,1690.02 672.738,1590.38 C672.582,1571.34 673.063,1552.15 674.188,1532.83 C700.473,1083.83 1077.47,731.012 1527.23,733.352 C1703.77,734.27 1873.36,789.02 2008.86,882.031 C2012.62,884.609 2016.5,888.27 2019.77,891.191 C2042.89,911.82 2058.5,939.941 2058.5,973.328 L2058.5,973.328 Z M2084.99,989.789 L2210.14,855.289 C2254.86,807.238 2249.84,731.012 2198.58,689.988 C2034.36,558.59 1826.06,480 1599.38,480 C1069.18,480 639.379,909.801 639.379,1440 C639.379,1464.69 640.316,1489.17 642.148,1513.39 C659.262,1295.19 756.617,1092.5 917.555,941.012 C1082.64,785.59 1297.58,700 1522.78,700 L1527.4,700.012 C1704.98,700.941 1875.98,754.371 2021.93,854.539 C2026.89,857.949 2031.19,861.82 2034.63,864.93 L2036.18,866.32 C2068.33,895.02 2086.04,933.031 2086.04,973.328 C2086.04,978.91 2085.63,984.379 2084.99,989.789 Z M2880,2880 L0,2880 L0,0 L2880,0 L2880,2880 Z M2773.33,2773.34 L2773.33,106.672 L106.664,106.672 L106.664,2773.34 L2773.33,2773.34 L2773.33,2773.34 Z" id="icon-path"></path>
        </g>
    </g>
</svg>
