<svg xmlns="http://www.w3.org/2000/svg" width="24" height="28" viewBox="0 0 24 28">
    <path fill="#1E1F1F" fill-rule="nonzero" d="M20.842 15.778c-.365-.36-1.176-.55-2.408-.566-.835-.01-1.84.064-2.896.212-.473-.273-.96-.57-1.343-.928-1.03-.961-1.889-2.296-2.424-3.763.034-.137.064-.258.092-.38 0 0 .58-3.294.426-4.408a1.287 1.287 0 0 0-.075-.316l-.05-.13c-.158-.363-.467-.748-.952-.727l-.285-.01h-.007c-.541 0-.982.277-1.097.69-.352 1.297.01 3.236.668 5.748l-.168.41c-.47 1.147-1.06 2.303-1.581 3.322l-.068.133a55.81 55.81 0 0 1-1.495 2.752l-.465.246c-.034.018-.831.44-1.018.553-1.586.947-2.637 2.022-2.812 2.875-.055.272-.014.62.268.782l.45.226c.195.098.401.147.612.147 1.13 0 2.441-1.407 4.248-4.56a42.312 42.312 0 0 1 6.542-1.554c1.586.893 3.537 1.513 4.768 1.513.219 0 .407-.02.56-.061a.953.953 0 0 0 .557-.38c.239-.36.287-.855.222-1.362-.019-.15-.14-.337-.27-.464zM3.969 21.79c.206-.563 1.022-1.676 2.227-2.664.076-.062.263-.237.434-.4-1.261 2.011-2.105 2.813-2.66 3.064zM11.11 5.345c.363 0 .57.915.587 1.773.017.858-.184 1.46-.433 1.906-.206-.66-.305-1.7-.305-2.38 0 0-.016-1.3.151-1.3zM8.98 17.064c.253-.453.516-.93.785-1.437.656-1.24 1.07-2.21 1.378-3.007.613 1.115 1.377 2.064 2.275 2.824.112.095.23.19.355.285-1.826.361-3.404.8-4.793 1.335zm11.511-.103c-.111.07-.43.11-.635.11-.66 0-1.479-.303-2.626-.795.44-.032.845-.049 1.207-.049.663 0 .86-.003 1.508.163.65.165.657.501.546.57zm1.995-11.623l-3.824-3.824C17.829.681 16.184 0 15.006 0H2.158a2.148 2.148 0 0 0-2.14 2.141v23.127c0 1.177.963 2.141 2.14 2.141h19.7A2.148 2.148 0 0 0 24 25.268V8.994c0-1.178-.681-2.823-1.514-3.656zM21.275 6.55c.083.084.167.187.248.303h-4.375V2.477c.116.081.219.165.303.248l3.824 3.824zm1.012 18.719a.434.434 0 0 1-.428.428h-19.7a.434.434 0 0 1-.429-.428V2.14c0-.232.196-.428.428-.428h12.848c.13 0 .275.016.429.046v6.806h6.806c.03.154.046.3.046.429v16.274z"/>
</svg>
